<mxfile host="app.diagrams.net" modified="2023-06-16T17:24:52.936Z" agent="Mozilla/5.0 (Windows NT 10.0; Win64; x64) AppleWebKit/537.36 (KHTML, like Gecko) Chrome/114.0.0.0 Safari/537.36 Edg/114.0.1823.43" etag="ZYDlA_8CK48rsx49HkKm" version="21.1.1" type="device">
  <diagram name="Page-1" id="c4acf3e9-155e-7222-9cf6-157b1a14988f">
    <mxGraphModel dx="2213" dy="2391" grid="1" gridSize="10" guides="1" tooltips="1" connect="1" arrows="1" fold="1" page="1" pageScale="1" pageWidth="850" pageHeight="1100" background="none" math="0" shadow="0">
      <root>
        <mxCell id="0" />
        <mxCell id="1" parent="0" />
        <mxCell id="4T2-mucvQKZNgxl2bdZC-4" style="edgeStyle=orthogonalEdgeStyle;rounded=0;orthogonalLoop=1;jettySize=auto;html=1;entryX=0;entryY=0.173;entryDx=0;entryDy=0;entryPerimeter=0;" edge="1" parent="1" source="5d2195bd80daf111-18" target="4T2-mucvQKZNgxl2bdZC-2">
          <mxGeometry relative="1" as="geometry" />
        </mxCell>
        <mxCell id="5d2195bd80daf111-18" value="&lt;p style=&quot;margin:0px;margin-top:4px;text-align:center;&quot;&gt;DataTable&lt;br&gt;&lt;/p&gt;&lt;hr size=&quot;1&quot;&gt;&lt;p style=&quot;margin:0px;margin-left:4px;&quot;&gt;- headers: string[]&lt;br&gt;- dataTable: string[][]&lt;/p&gt;&lt;hr size=&quot;1&quot;&gt;&lt;p style=&quot;margin:0px;margin-left:4px;&quot;&gt;+ ReadCSV(serive): void&lt;br&gt;&lt;/p&gt;" style="verticalAlign=top;align=left;overflow=fill;fontSize=12;fontFamily=Helvetica;html=1;rounded=0;shadow=0;comic=0;labelBackgroundColor=none;strokeWidth=1" parent="1" vertex="1">
          <mxGeometry x="60" y="-833" width="190" height="103" as="geometry" />
        </mxCell>
        <mxCell id="4T2-mucvQKZNgxl2bdZC-1" value="Abstract Class" style="text;html=1;strokeColor=none;fillColor=none;align=center;verticalAlign=middle;whiteSpace=wrap;rounded=0;" vertex="1" parent="1">
          <mxGeometry x="100" y="-863" width="95" height="30" as="geometry" />
        </mxCell>
        <mxCell id="4T2-mucvQKZNgxl2bdZC-2" value="&lt;p style=&quot;margin:0px;margin-top:4px;text-align:center;&quot;&gt;FilteredDataTable&lt;br&gt;&lt;/p&gt;&lt;hr size=&quot;1&quot;&gt;&lt;p style=&quot;margin:0px;margin-left:4px;&quot;&gt;- headers: string[]&lt;br&gt;- dataTable: string[][]&lt;/p&gt;&lt;p style=&quot;margin:0px;margin-left:4px;&quot;&gt;- filteredDataTable: string[][]&lt;/p&gt;&lt;p style=&quot;margin:0px;margin-left:4px;&quot;&gt;- filters: List&amp;lt;Filter&amp;gt;&lt;/p&gt;&lt;hr size=&quot;1&quot;&gt;&lt;p style=&quot;margin:0px;margin-left:4px;&quot;&gt;+ ReadCSV(in serice: csvReadService): void&lt;br&gt;&lt;/p&gt;&lt;p style=&quot;margin:0px;margin-left:4px;&quot;&gt;+ Filter(in filters): void&lt;/p&gt;&lt;p style=&quot;margin:0px;margin-left:4px;&quot;&gt;+ GetfilteredData(out filteredDataTable)&lt;/p&gt;" style="verticalAlign=top;align=left;overflow=fill;fontSize=12;fontFamily=Helvetica;html=1;rounded=0;shadow=0;comic=0;labelBackgroundColor=none;strokeWidth=1" vertex="1" parent="1">
          <mxGeometry x="350" y="-863" width="280" height="163" as="geometry" />
        </mxCell>
        <mxCell id="4T2-mucvQKZNgxl2bdZC-7" value="&lt;p style=&quot;margin:0px;margin-top:4px;text-align:center;&quot;&gt;Filter&lt;br&gt;&lt;/p&gt;&lt;hr size=&quot;1&quot;&gt;&lt;p style=&quot;margin:0px;margin-left:4px;&quot;&gt;- column: string&lt;/p&gt;&lt;p style=&quot;margin:0px;margin-left:4px;&quot;&gt;- operator: string&lt;/p&gt;&lt;p style=&quot;margin:0px;margin-left:4px;&quot;&gt;- filterValue: string&lt;/p&gt;&lt;p style=&quot;margin:0px;margin-left:4px;&quot;&gt;- logicalOperator?: string&lt;/p&gt;&lt;hr size=&quot;1&quot;&gt;&lt;p style=&quot;margin:0px;margin-left:4px;&quot;&gt;&lt;span style=&quot;background-color: initial;&quot;&gt;+ Filter(in DataTable): DataTable&lt;/span&gt;&lt;br&gt;&lt;/p&gt;" style="verticalAlign=top;align=left;overflow=fill;fontSize=12;fontFamily=Helvetica;html=1;rounded=0;shadow=0;comic=0;labelBackgroundColor=none;strokeWidth=1" vertex="1" parent="1">
          <mxGeometry x="640" y="-610" width="190" height="130" as="geometry" />
        </mxCell>
        <mxCell id="4T2-mucvQKZNgxl2bdZC-9" value="" style="endArrow=diamondThin;endFill=1;endSize=24;html=1;rounded=0;entryX=1.006;entryY=0.556;entryDx=0;entryDy=0;entryPerimeter=0;" edge="1" parent="1" target="4T2-mucvQKZNgxl2bdZC-2">
          <mxGeometry width="160" relative="1" as="geometry">
            <mxPoint x="750" y="-610" as="sourcePoint" />
            <mxPoint x="910" y="-610" as="targetPoint" />
            <Array as="points">
              <mxPoint x="750" y="-772" />
            </Array>
          </mxGeometry>
        </mxCell>
        <mxCell id="4T2-mucvQKZNgxl2bdZC-12" style="edgeStyle=orthogonalEdgeStyle;rounded=0;orthogonalLoop=1;jettySize=auto;html=1;entryX=0;entryY=0.5;entryDx=0;entryDy=0;" edge="1" parent="1" source="4T2-mucvQKZNgxl2bdZC-10" target="4T2-mucvQKZNgxl2bdZC-11">
          <mxGeometry relative="1" as="geometry" />
        </mxCell>
        <mxCell id="4T2-mucvQKZNgxl2bdZC-10" value="&lt;p style=&quot;margin:0px;margin-top:4px;text-align:center;&quot;&gt;&amp;lt;&amp;lt;Interface&amp;gt;&amp;gt;&lt;/p&gt;&lt;p style=&quot;margin:0px;margin-top:4px;text-align:center;&quot;&gt;IFileReadingService&lt;/p&gt;&lt;hr&gt;&lt;p style=&quot;margin:0px;margin-left:4px;&quot;&gt;- FilePath: string&lt;br&gt;- dataTable: string[][]&lt;/p&gt;&lt;hr size=&quot;1&quot;&gt;&lt;p style=&quot;margin:0px;margin-left:4px;&quot;&gt;+ ReadFile(): void&lt;br&gt;&lt;/p&gt;" style="verticalAlign=top;align=left;overflow=fill;fontSize=12;fontFamily=Helvetica;html=1;rounded=0;shadow=0;comic=0;labelBackgroundColor=none;strokeWidth=1" vertex="1" parent="1">
          <mxGeometry x="60" y="-470" width="190" height="110" as="geometry" />
        </mxCell>
        <mxCell id="4T2-mucvQKZNgxl2bdZC-11" value="&lt;p style=&quot;margin:0px;margin-top:4px;text-align:center;&quot;&gt;&lt;span style=&quot;background-color: initial;&quot;&gt;CSVReadingService&lt;/span&gt;&lt;br&gt;&lt;/p&gt;&lt;hr&gt;&lt;p style=&quot;margin:0px;margin-left:4px;&quot;&gt;- FilePath: string&lt;br&gt;- dataTable: string[][]&lt;/p&gt;&lt;hr size=&quot;1&quot;&gt;&lt;p style=&quot;margin:0px;margin-left:4px;&quot;&gt;+ ReadFile(): void&lt;br&gt;&lt;/p&gt;&lt;p style=&quot;margin:0px;margin-left:4px;&quot;&gt;+ getDataTable(): DataTable&lt;/p&gt;" style="verticalAlign=top;align=left;overflow=fill;fontSize=12;fontFamily=Helvetica;html=1;rounded=0;shadow=0;comic=0;labelBackgroundColor=none;strokeWidth=1" vertex="1" parent="1">
          <mxGeometry x="340" y="-520" width="190" height="110" as="geometry" />
        </mxCell>
        <mxCell id="4T2-mucvQKZNgxl2bdZC-13" value="" style="endArrow=none;html=1;rounded=0;exitX=0.458;exitY=0;exitDx=0;exitDy=0;exitPerimeter=0;" edge="1" parent="1" source="4T2-mucvQKZNgxl2bdZC-11" target="4T2-mucvQKZNgxl2bdZC-2">
          <mxGeometry width="50" height="50" relative="1" as="geometry">
            <mxPoint x="460" y="-540" as="sourcePoint" />
            <mxPoint x="460" y="-600" as="targetPoint" />
            <Array as="points">
              <mxPoint x="427" y="-590" />
              <mxPoint x="490" y="-590" />
            </Array>
          </mxGeometry>
        </mxCell>
        <mxCell id="4T2-mucvQKZNgxl2bdZC-14" value="1..*" style="text;html=1;strokeColor=none;fillColor=none;align=center;verticalAlign=middle;whiteSpace=wrap;rounded=0;" vertex="1" parent="1">
          <mxGeometry x="425" y="-550" width="60" height="30" as="geometry" />
        </mxCell>
        <mxCell id="4T2-mucvQKZNgxl2bdZC-15" value="0..*" style="text;html=1;strokeColor=none;fillColor=none;align=center;verticalAlign=middle;whiteSpace=wrap;rounded=0;" vertex="1" parent="1">
          <mxGeometry x="490" y="-700" width="60" height="30" as="geometry" />
        </mxCell>
        <mxCell id="4T2-mucvQKZNgxl2bdZC-16" value="1" style="text;html=1;strokeColor=none;fillColor=none;align=center;verticalAlign=middle;whiteSpace=wrap;rounded=0;" vertex="1" parent="1">
          <mxGeometry x="630" y="-796.5" width="60" height="30" as="geometry" />
        </mxCell>
        <mxCell id="4T2-mucvQKZNgxl2bdZC-17" value="*" style="text;html=1;strokeColor=none;fillColor=none;align=center;verticalAlign=middle;whiteSpace=wrap;rounded=0;" vertex="1" parent="1">
          <mxGeometry x="740" y="-640" width="60" height="30" as="geometry" />
        </mxCell>
        <mxCell id="4T2-mucvQKZNgxl2bdZC-18" value="0..*" style="text;html=1;strokeColor=none;fillColor=none;align=center;verticalAlign=middle;whiteSpace=wrap;rounded=0;" vertex="1" parent="1">
          <mxGeometry x="290" y="-490" width="60" height="30" as="geometry" />
        </mxCell>
        <mxCell id="4T2-mucvQKZNgxl2bdZC-19" value="1" style="text;html=1;strokeColor=none;fillColor=none;align=center;verticalAlign=middle;whiteSpace=wrap;rounded=0;" vertex="1" parent="1">
          <mxGeometry x="230" y="-420" width="60" height="30" as="geometry" />
        </mxCell>
        <mxCell id="4T2-mucvQKZNgxl2bdZC-22" value="nadunisurub" style="shape=umlFrame;whiteSpace=wrap;html=1;pointerEvents=0;width=105;height=30;" vertex="1" parent="1">
          <mxGeometry y="-970" width="850" height="713" as="geometry" />
        </mxCell>
        <mxCell id="4T2-mucvQKZNgxl2bdZC-23" value="&lt;font style=&quot;font-size: 18px;&quot;&gt;DataGrid UML Class Diagram&lt;/font&gt;" style="text;align=center;fontStyle=1;verticalAlign=middle;spacingLeft=3;spacingRight=3;strokeColor=none;rotatable=0;points=[[0,0.5],[1,0.5]];portConstraint=eastwest;html=1;" vertex="1" parent="1">
          <mxGeometry x="385" y="-960" width="80" height="26" as="geometry" />
        </mxCell>
      </root>
    </mxGraphModel>
  </diagram>
</mxfile>
